<svg viewBox="0 0 800 134" xmlns="http://www.w3.org/2000/svg">
<defs>
<marker id="a" markerWidth="7" markerHeight="7" refX="6" refY="3.5" orient="auto" markerUnits="userSpaceOnUse"><polygon points="0,0 7,3.5 0,7" fill="#4b5563"/></marker>
</defs>
<rect width="800" height="134" rx="8" fill="#0d1117"/>
<!-- N1 purple -->
<rect x="10" y="17" width="110" height="50" rx="6" fill="#1e1a3a" stroke="#9b8fee" stroke-width="1.5"/>
<text x="65" y="38" fill="#9b8fee" font-size="10" font-weight="600" text-anchor="middle" font-family="Inter,'Segoe UI',system-ui,sans-serif">Business</text>
<text x="65" y="52" fill="#9b8fee" font-size="10" text-anchor="middle" font-family="Inter,'Segoe UI',system-ui,sans-serif">Understanding</text>
<line x1="121" y1="42" x2="137" y2="42" stroke="#4b5563" stroke-width="1.5" marker-end="url(#a)"/>
<!-- N2 dark -->
<rect x="140" y="17" width="110" height="50" rx="6" fill="#161b22" stroke="rgba(155,143,238,0.25)" stroke-width="1"/>
<text x="195" y="38" fill="#9da3b4" font-size="10" font-weight="600" text-anchor="middle" font-family="Inter,'Segoe UI',system-ui,sans-serif">Data</text>
<text x="195" y="52" fill="#9da3b4" font-size="10" text-anchor="middle" font-family="Inter,'Segoe UI',system-ui,sans-serif">Understanding</text>
<line x1="251" y1="42" x2="267" y2="42" stroke="#4b5563" stroke-width="1.5" marker-end="url(#a)"/>
<!-- N3 dark -->
<rect x="270" y="17" width="110" height="50" rx="6" fill="#161b22" stroke="rgba(155,143,238,0.25)" stroke-width="1"/>
<text x="325" y="38" fill="#9da3b4" font-size="10" font-weight="600" text-anchor="middle" font-family="Inter,'Segoe UI',system-ui,sans-serif">Data</text>
<text x="325" y="52" fill="#9da3b4" font-size="10" text-anchor="middle" font-family="Inter,'Segoe UI',system-ui,sans-serif">Preparation</text>
<line x1="381" y1="42" x2="397" y2="42" stroke="#4b5563" stroke-width="1.5" marker-end="url(#a)"/>
<!-- N4 dark -->
<rect x="400" y="17" width="110" height="50" rx="6" fill="#161b22" stroke="rgba(155,143,238,0.25)" stroke-width="1"/>
<text x="455" y="45" fill="#9da3b4" font-size="10" font-weight="600" text-anchor="middle" font-family="Inter,'Segoe UI',system-ui,sans-serif">Modelling</text>
<line x1="511" y1="42" x2="527" y2="42" stroke="#4b5563" stroke-width="1.5" marker-end="url(#a)"/>
<!-- N5 dark -->
<rect x="530" y="17" width="110" height="50" rx="6" fill="#161b22" stroke="rgba(155,143,238,0.25)" stroke-width="1"/>
<text x="585" y="45" fill="#9da3b4" font-size="10" font-weight="600" text-anchor="middle" font-family="Inter,'Segoe UI',system-ui,sans-serif">Evaluation</text>
<line x1="641" y1="42" x2="657" y2="42" stroke="#4b5563" stroke-width="1.5" marker-end="url(#a)"/>
<!-- N6 green -->
<rect x="660" y="17" width="110" height="50" rx="6" fill="#0d2818" stroke="#5bcc78" stroke-width="1.5"/>
<text x="715" y="45" fill="#5bcc78" font-size="10" font-weight="600" text-anchor="middle" font-family="Inter,'Segoe UI',system-ui,sans-serif">Deployment</text>
<!-- Feedback arc: N6 → N1 -->
<path d="M 715,68 C 715,108 65,108 65,71" stroke="#4b5563" stroke-width="1.2" stroke-dasharray="4 3" fill="none" marker-end="url(#a)"/>
<text x="390" y="121" fill="#6b7280" font-size="9.5" font-style="italic" text-anchor="middle" font-family="Inter,'Segoe UI',system-ui,sans-serif">Iterate</text>
</svg>
